<svg width="90" height="82" viewBox="0 0 90 82" fill="none" xmlns="http://www.w3.org/2000/svg">
<path d="M39.1473 51.847C37.1279 51.847 35.2299 50.5896 33.9386 48.3914C32.8076 46.4706 32.1836 43.9515 32.1836 41.3067C32.1836 38.6575 32.8076 36.1428 33.9386 34.222C35.2299 32.0281 37.1323 30.7664 39.1473 30.7664C41.1666 30.7664 43.0646 32.0237 44.3559 34.222C45.4869 36.1428 46.1109 38.6619 46.1109 41.3067C46.1109 43.9515 45.4869 46.4706 44.3559 48.3914C43.0646 50.5853 41.1666 51.847 39.1473 51.847Z" fill="white" stroke="black" stroke-width="2" stroke-miterlimit="10"/>
<path d="M39.1454 50.0001C41.9742 50.0001 44.2674 46.108 44.2674 41.3068C44.2674 36.5056 41.9742 32.6135 39.1454 32.6135C36.3166 32.6135 34.0234 36.5056 34.0234 41.3068C34.0234 46.108 36.3166 50.0001 39.1454 50.0001Z" fill="black" stroke="black" stroke-width="3" stroke-miterlimit="10"/>
<path d="M39.5664 30.7837L69.6657 33.3288C69.6657 33.3288 72.5734 35.371 72.5734 41.3067C72.5734 47.2424 69.6657 49.2802 69.6657 49.2802L39.5664 51.8297" stroke="black" stroke-width="2" stroke-miterlimit="10"/>
<path d="M70.4766 34.1482L83.8492 35.2798C83.8492 35.2798 86.0462 36.819 86.0462 41.3066C86.0462 45.7942 83.8492 47.329 83.8492 47.329L70.4766 48.4607" stroke="black" stroke-width="2" stroke-miterlimit="10"/>
<path d="M85.418 37.5908L87.251 37.7469C87.251 37.7469 88.5466 38.6574 88.5466 41.3066C88.5466 43.9558 87.251 44.8663 87.251 44.8663L85.418 45.0224" stroke="black" stroke-width="2" stroke-miterlimit="10"/>
<path d="M23.9754 51.847C21.9561 51.847 20.0581 50.5896 18.7667 48.3914C17.6357 46.4706 17.0117 43.9515 17.0117 41.3067C17.0117 38.6575 17.6357 36.1428 18.7667 34.222C20.0581 32.0281 21.9604 30.7664 23.9754 30.7664C25.9947 30.7664 27.8927 32.0237 29.1841 34.222C30.3151 36.1428 30.9391 38.6619 30.9391 41.3067C30.9391 43.9515 30.3151 46.4706 29.1841 48.3914C27.8884 50.5853 25.9904 51.847 23.9754 51.847Z" fill="white" stroke="black" stroke-width="2" stroke-miterlimit="10"/>
<path d="M23.9755 50.0001C26.8043 50.0001 29.0975 46.108 29.0975 41.3068C29.0975 36.5056 26.8043 32.6135 23.9755 32.6135C21.1467 32.6135 18.8535 36.5056 18.8535 41.3068C18.8535 46.108 21.1467 50.0001 23.9755 50.0001Z" fill="black" stroke="black" stroke-width="3" stroke-miterlimit="10"/>
<path d="M36.1123 50.8369L24.3906 51.8298" stroke="black" stroke-width="2" stroke-miterlimit="10"/>
<path d="M24.3906 30.7837L36.0473 31.7679" stroke="black" stroke-width="2" stroke-miterlimit="10"/>
<path d="M47.3738 62.0234L47.9545 63.5323L49.4668 64.1133L47.9545 64.6943L47.3738 66.2075L46.7932 64.6986L45.2852 64.1133L46.7932 63.5323L47.3738 62.0234Z" fill="#3861FB"/>
<path d="M12.3152 20.3103L12.8959 21.8235L14.4082 22.4045L12.8959 22.9855L12.3152 24.4987L11.7346 22.9855L10.2266 22.4045L11.7346 21.8235L12.3152 20.3103Z" fill="#3861FB"/>
<path d="M52.7785 18.2878L53.3592 19.7967L54.8672 20.382L53.3592 20.963L52.7785 22.4719L52.1935 20.963L50.6855 20.382L52.1979 19.7967L52.7785 18.2878Z" fill="#3861FB"/>
<path d="M86.0461 55.906L86.6268 57.4192L88.1348 58.0002L86.6268 58.5812L86.0461 60.0944L85.4655 58.5812L83.9531 58.0002L85.4655 57.4192L86.0461 55.906Z" fill="#3861FB"/>
<path d="M73.4823 65.5569H73.127V81.3912H73.4823V65.5569Z" fill="white"/>
<path d="M81.2207 73.6514V73.2959H65.3954V73.6514H81.2207Z" fill="white"/>
<path d="M67.8333 67.7515L67.582 68.0029L78.7721 79.1994L79.0234 78.948L67.8333 67.7515Z" fill="white"/>
<path d="M79.0266 67.9997L78.7754 67.7483L67.5853 78.9448L67.8365 79.1962L79.0266 67.9997Z" fill="white"/>
<path d="M73.3053 74.8875C74.0854 74.8875 74.7179 74.2547 74.7179 73.474C74.7179 72.6934 74.0854 72.0605 73.3053 72.0605C72.5251 72.0605 71.8926 72.6934 71.8926 73.474C71.8926 74.2547 72.5251 74.8875 73.3053 74.8875Z" fill="white"/>
<path d="M54.877 1.09229V8.27237C54.877 8.96176 55.4359 9.52542 56.1293 9.52542H70.4553C71.1443 9.52542 71.7076 10.0847 71.7076 10.7785V18.8691C71.7076 19.5585 72.2666 20.1221 72.96 20.1221H86.9913" stroke="black" stroke-width="2" stroke-miterlimit="10"/>
<path d="M54.8769 1.6863C55.2047 1.6863 55.4705 1.42036 55.4705 1.0923C55.4705 0.764237 55.2047 0.498291 54.8769 0.498291C54.549 0.498291 54.2832 0.764237 54.2832 1.0923C54.2832 1.42036 54.549 1.6863 54.8769 1.6863Z" fill="white"/>
<path d="M86.9823 20.7161C87.3102 20.7161 87.576 20.4501 87.576 20.1221C87.576 19.794 87.3102 19.5281 86.9823 19.5281C86.6545 19.5281 86.3887 19.794 86.3887 20.1221C86.3887 20.4501 86.6545 20.7161 86.9823 20.7161Z" fill="white"/>
<path d="M1.38281 61.4358H6.98581C7.73548 61.4358 8.34215 62.0428 8.34215 62.7929V67.4365C8.34215 68.1866 8.94881 68.7936 9.69848 68.7936H23.8121C24.5618 68.7936 25.1685 69.4007 25.1685 70.1508V78.0332C25.1685 78.7833 25.7751 79.3904 26.5248 79.3904H50.1718" stroke="black" stroke-width="2" stroke-miterlimit="10"/>
<path d="M1.38273 62.0298C1.7106 62.0298 1.97639 61.7639 1.97639 61.4358C1.97639 61.1077 1.7106 60.8418 1.38273 60.8418C1.05486 60.8418 0.789062 61.1077 0.789062 61.4358C0.789062 61.7639 1.05486 62.0298 1.38273 62.0298Z" fill="white"/>
<path d="M50.1679 79.98C50.4958 79.98 50.7616 79.7141 50.7616 79.386C50.7616 79.0579 50.4958 78.792 50.1679 78.792C49.84 78.792 49.5742 79.0579 49.5742 79.386C49.5742 79.7141 49.84 79.98 50.1679 79.98Z" fill="white"/>
</svg>
