<svg width="8" height="6" viewBox="0 0 8 6" fill="none" xmlns="http://www.w3.org/2000/svg">
<path d="M7.33248 1.11333C7.20758 0.989166 7.03861 0.919472 6.86248 0.919472C6.68636 0.919472 6.51739 0.989166 6.39249 1.11333L3.99915 3.47333L1.63915 1.11333C1.51424 0.989166 1.34528 0.919472 1.16915 0.919472C0.993028 0.919472 0.82406 0.989166 0.699152 1.11333C0.636666 1.17531 0.58707 1.24904 0.553224 1.33028C0.519378 1.41152 0.501953 1.49866 0.501953 1.58667C0.501953 1.67467 0.519378 1.76181 0.553224 1.84305C0.58707 1.92429 0.636666 1.99802 0.699152 2.06L3.52582 4.88667C3.58779 4.94915 3.66153 4.99875 3.74277 5.03259C3.82401 5.06644 3.91114 5.08387 3.99915 5.08387C4.08716 5.08387 4.1743 5.06644 4.25554 5.03259C4.33678 4.99875 4.41051 4.94915 4.47249 4.88667L7.33248 2.06C7.39497 1.99802 7.44457 1.92429 7.47841 1.84305C7.51226 1.76181 7.52968 1.67467 7.52968 1.58667C7.52968 1.49866 7.51226 1.41152 7.47841 1.33028C7.44457 1.24904 7.39497 1.17531 7.33248 1.11333Z" fill="white"/>
</svg>
