<svg width="8" height="12" viewBox="0 0 8 12" fill="none" xmlns="http://www.w3.org/2000/svg">
<path d="M1.1697 1.00005C0.983448 1.18741 0.878906 1.44087 0.878906 1.70505C0.878906 1.96924 0.983448 2.22269 1.1697 2.41005L4.7097 6.00005L1.1697 9.54005C0.983448 9.72741 0.878906 9.98087 0.878906 10.2451C0.878906 10.5092 0.983448 10.7627 1.1697 10.9501C1.26266 11.0438 1.37326 11.1182 1.49512 11.1689C1.61698 11.2197 1.74769 11.2458 1.8797 11.2458C2.01171 11.2458 2.14242 11.2197 2.26428 11.1689C2.38613 11.1182 2.49674 11.0438 2.5897 10.9501L6.8297 6.71005C6.92343 6.61709 6.99782 6.50649 7.04859 6.38463C7.09936 6.26277 7.1255 6.13206 7.1255 6.00005C7.1255 5.86804 7.09936 5.73733 7.04859 5.61547C6.99782 5.49362 6.92343 5.38301 6.8297 5.29005L2.5897 1.00005C2.49674 0.906323 2.38613 0.831929 2.26428 0.78116C2.14242 0.730392 2.01171 0.704252 1.8797 0.704252C1.74769 0.704252 1.61698 0.730392 1.49512 0.78116C1.37326 0.831929 1.26266 0.906323 1.1697 1.00005Z" fill="#242424"/>
</svg>
