<svg width="124" height="100" viewBox="0 0 124 100" fill="none" xmlns="http://www.w3.org/2000/svg">
<path d="M61.9141 57.5885C61.9141 57.5885 78.1303 77.9627 87.8323 55.2322C97.5343 32.6404 68.0125 28.0666 61.9141 44.1442C58.3105 53.9848 61.9141 57.5885 61.9141 57.5885Z" fill="#3861FB"/>
<path d="M77.8523 98.7524C76.1891 98.891 104.186 97.3664 113.611 82.1203C123.036 66.8743 124.699 28.7593 104.186 18.3643C104.186 18.3643 123.59 43.5895 114.997 65.2111C106.404 86.8327 90.3263 97.3664 77.8523 98.7524Z" fill="#3861FB"/>
<path d="M75.081 98.8904C69.8142 98.8904 64.686 97.7816 59.835 95.564C39.4608 86.1392 30.4517 59.6666 39.8765 36.5203C44.7275 24.6007 53.8751 15.3145 64.9631 11.0179C74.6651 7.13712 85.0602 7.41432 94.2078 11.7109C114.582 21.1357 123.591 47.6084 114.166 70.7546C109.315 82.6742 100.168 91.9604 89.0796 96.257C84.5058 98.0588 79.7934 98.8904 75.081 98.8904ZM78.9618 11.0179C74.6652 11.0179 70.2299 11.8495 65.9333 13.5127C55.5383 17.5321 46.9451 26.4026 42.3713 37.4906C33.5009 59.2508 41.8169 84.0602 60.8051 92.9306C69.2597 96.8114 78.9618 97.0886 87.9708 93.485C98.3658 89.4656 106.959 80.5952 111.533 69.5072C120.403 47.747 112.087 22.9375 93.099 14.0671C88.5252 12.1267 83.8128 11.0179 78.9618 11.0179Z" fill="#212223"/>
<path d="M75.0828 88.912C70.7862 88.912 66.4896 87.9418 62.4702 86.14C45.561 78.3784 38.2152 56.4796 45.9768 37.4914C49.9962 27.6507 57.4806 20.0277 66.6282 16.4241C74.667 13.2363 83.2602 13.5135 90.7446 16.9785C107.654 24.7401 115 46.5003 107.099 65.6272C103.08 75.4678 95.5956 83.0908 86.448 86.6944C82.8444 88.219 78.9636 88.912 75.0828 88.912ZM78.2706 16.9785C74.8056 16.9785 71.202 17.6715 67.737 19.0575C59.2824 22.3839 52.3524 29.4525 48.6102 38.6001C41.403 56.341 48.0557 76.438 63.579 83.6452C70.509 86.833 78.2706 86.9716 85.6164 84.1996C94.071 80.8732 101.001 73.8046 104.743 64.657C111.95 46.9162 105.298 26.8191 89.7744 19.6119C86.0322 17.8101 82.1514 16.9785 78.2706 16.9785Z" fill="#212223"/>
<path d="M73.9742 77.2692C70.7864 77.2692 67.7373 76.5762 64.8267 75.1902C52.6298 69.5075 47.2245 53.7071 52.9071 39.9857C55.8177 32.9171 61.2231 27.3731 67.8759 24.7397C73.6971 22.5221 79.9341 22.6607 85.4781 25.1555C97.6749 30.8381 103.08 46.6385 97.3977 60.3599C94.4871 67.4286 89.0817 72.9726 82.4289 75.606C79.6569 76.7148 76.8848 77.2692 73.9742 77.2692ZM76.1919 25.9871C73.6971 25.9871 71.2023 26.4029 68.8461 27.3731C62.8863 29.7293 58.0353 34.7189 55.4019 41.0945C50.2737 53.5685 54.986 67.7057 65.9354 72.6953C70.7864 74.913 76.1919 75.0515 81.3201 72.9725C87.2799 70.6163 92.1309 65.6267 94.7643 59.2511C99.8925 46.7771 95.1801 32.6399 84.2307 27.6503C81.7359 26.5415 78.9639 25.9871 76.1919 25.9871Z" fill="#212223"/>
<path d="M73.9713 67.1516C71.8923 67.1516 69.9519 66.7358 68.0115 65.9042C60.2499 62.3006 56.7849 52.1827 60.3885 43.4509C62.1903 38.8771 65.794 35.4121 69.952 33.7489C73.6942 32.2243 77.7136 32.3629 81.3172 34.0261C89.0788 37.6297 92.5438 47.7475 88.9402 56.4794C87.1384 61.0532 83.5348 64.5182 79.3768 66.1814C77.7136 66.7358 75.7731 67.1516 73.9713 67.1516ZM75.3573 35.2735C73.8327 35.2735 72.4468 35.5507 70.9222 36.1051C67.4572 37.4911 64.4079 40.5403 62.8833 44.2825C59.8341 51.7669 62.6061 60.2215 69.1203 63.2708C72.0309 64.6568 75.2188 64.6568 78.268 63.4094C81.733 62.0234 84.7822 58.9741 86.3068 55.2319C89.356 47.7475 86.584 39.2929 80.0698 36.2437C78.6838 35.6893 77.0205 35.2735 75.3573 35.2735Z" fill="#212223"/>
<path d="M78.9636 44.976C81.3198 47.748 81.3198 52.0446 78.6864 54.678C76.053 57.3114 72.1722 57.1728 69.816 54.4008C67.4598 51.6288 67.4598 47.3322 70.0932 44.6988C72.588 42.204 76.4688 42.3426 78.9636 44.976Z" fill="#212223"/>
<path d="M75.221 50.797C74.9438 50.797 74.6666 50.797 74.528 50.5198C74.2508 50.3812 49.4414 34.858 30.4532 22.9383C27.8198 23.0769 25.325 25.5717 25.1864 25.5717C24.7706 25.9875 24.0776 26.1261 23.5232 25.8489C13.6826 20.1663 2.45593 20.0277 2.31733 20.0277C1.90152 20.0277 1.48574 19.8891 1.20854 19.4733C0.931341 19.1961 0.792723 18.7803 0.931324 18.3645C1.48572 15.8697 7.86134 13.0977 12.8509 11.2959C10.0789 7.69231 9.94034 1.73251 9.94034 1.45531C9.94034 0.900914 10.2175 0.485101 10.6333 0.2079C11.0491 -0.0693001 11.6035 -0.0693001 12.0193 0.2079L29.0672 10.6029C29.483 10.8801 29.7602 11.2959 29.7602 11.7117C29.8988 15.1767 32.6708 20.8593 32.6708 20.9979C32.6708 20.9979 32.6708 21.1365 32.8094 21.2751C51.659 33.0561 75.4983 48.025 75.7755 48.1636C76.4685 48.5794 76.607 49.411 76.1912 50.104C76.0526 50.5198 75.6368 50.797 75.221 50.797ZM5.64372 17.5329C9.80173 17.9487 17.009 19.1961 23.939 22.9383C24.632 22.3839 25.7407 21.5523 27.1267 20.9979C22.5529 18.0873 18.395 15.4539 15.2072 13.5135C11.465 14.8995 7.86132 16.4241 5.64372 17.5329ZM16.316 10.8801C19.5038 12.9591 23.9389 15.7311 28.9285 18.7803C28.2355 16.9785 27.5426 14.7609 27.2654 12.8205L13.1282 4.22732C13.4054 6.58352 14.3755 9.63271 16.316 10.8801Z" fill="#212223"/>
<path d="M80.4876 100C72.726 100 67.182 98.1982 67.0434 98.1982C66.3504 97.921 65.9346 97.228 66.2118 96.3964C66.489 95.7034 67.182 95.2876 68.0136 95.5648C69.3996 95.9806 101.139 106.098 115.415 74.0818C122.899 57.4498 120.266 44.2828 116.801 36.2439C112.781 26.8191 104.881 18.9189 96.7039 16.0083C96.0109 15.7311 95.5951 14.8995 95.8723 14.2065C96.1495 13.5135 96.9811 13.0977 97.6741 13.3749C106.683 16.4241 114.999 24.7401 119.434 34.9965C123.177 43.5898 125.949 57.4498 118.048 75.052C108.624 95.842 92.13 100 80.4876 100Z" fill="#212223"/>
<path d="M116.942 35.5513C116.665 35.5513 116.387 35.5513 116.249 35.2741L111.398 32.2249C110.705 31.8091 110.566 30.9774 110.982 30.2844C111.398 29.5914 112.229 29.4529 112.922 29.8687L117.773 32.9179C118.466 33.3337 118.605 34.1653 118.189 34.8583C117.773 35.2741 117.358 35.5513 116.942 35.5513Z" fill="#212223"/>
<path d="M119.295 41.234C119.156 41.234 119.018 41.234 118.879 41.0954L114.721 39.5708C114.028 39.2936 113.612 38.462 113.89 37.769C114.167 37.076 114.998 36.6602 115.691 36.9374L119.849 38.462C120.542 38.7392 120.958 39.5708 120.681 40.2638C120.404 40.9568 119.849 41.234 119.295 41.234Z" fill="#212223"/>
</svg>
