<svg width="116" height="102" viewBox="0 0 116 102" fill="none" xmlns="http://www.w3.org/2000/svg">
<path d="M19.9043 74.5671L20.2933 99.9826H35.5945V73.7891L19.9043 74.5671Z" fill="#3861FB"/>
<path d="M64.3789 61.4702L79.6801 73.789V99.9825C79.6801 99.9825 64.3789 102.965 64.3789 99.9825C64.3789 97.0001 64.3789 61.4702 64.3789 61.4702Z" fill="#3861FB"/>
<path d="M88.7559 11.6763V99.5932L104.057 99.9822V11.6763H88.7559Z" fill="#3861FB"/>
<path d="M35.5921 101.279H20.2909C19.5128 101.279 18.9941 100.76 18.9941 99.9824V73.7889C18.9941 73.0109 19.5128 72.4922 20.2909 72.4922H35.5921C36.3701 72.4922 36.8888 73.0109 36.8888 73.7889V99.9824C36.8888 100.631 36.3701 101.279 35.5921 101.279ZM21.5876 98.6857H34.2953V75.0856H21.5876V98.6857Z" fill="#212223"/>
<path d="M56.5998 101.279H41.2987C40.5206 101.279 40.002 100.76 40.002 99.9823V61.47C40.002 60.692 40.5206 60.1733 41.2987 60.1733H56.5998C57.3779 60.1733 57.8965 60.692 57.8965 61.47V99.9823C57.8965 100.631 57.2482 101.279 56.5998 101.279ZM42.4657 98.6856H55.1735V62.7668H42.4657V98.6856Z" fill="#212223"/>
<path d="M79.8089 101.279H64.5076C63.7296 101.279 63.2109 100.76 63.2109 99.9819V34.887C63.2109 34.109 63.7296 33.5903 64.5076 33.5903H79.8089C80.5869 33.5903 81.1056 34.109 81.1056 34.887V99.9819C81.1056 100.63 80.4572 101.279 79.8089 101.279ZM65.6747 98.6852H78.3824V36.1838H65.6747V98.6852Z" fill="#212223"/>
<path d="M104.059 101.28H88.7576C87.9796 101.28 87.4609 100.761 87.4609 99.983V11.6771C87.4609 10.8991 87.9796 10.3804 88.7576 10.3804H104.059C104.837 10.3804 105.356 10.8991 105.356 11.6771V99.983C105.356 100.631 104.837 101.28 104.059 101.28ZM90.0544 98.6863H102.762V12.9738H90.0544V98.6863Z" fill="#212223"/>
<path d="M12.3821 65.62C11.8634 65.62 11.3447 65.231 11.0854 64.7123C10.9557 64.064 11.3447 63.2859 11.9931 63.1563C12.1227 63.1563 23.6635 59.9145 44.5405 43.3166C70.2154 22.8286 80.4594 1.43286 80.589 1.17352C80.8484 0.525162 81.6264 0.26582 82.2747 0.525162C82.9231 0.784504 83.1824 1.56253 82.9231 2.21088C82.7934 2.47023 72.4197 24.3846 46.2262 45.2617C24.9602 62.2486 13.1601 65.4903 12.7711 65.4903C12.6414 65.62 12.5118 65.62 12.3821 65.62Z" fill="#212223"/>
<path d="M83.8307 13.103C83.0527 13.103 82.534 12.5843 82.534 11.8063C82.534 8.17547 81.8856 3.50732 80.9779 2.59962C79.9406 2.21061 74.7538 5.71172 72.679 7.78646C72.1604 8.30514 71.3823 8.30514 70.8636 7.78646C70.3449 7.26778 70.3449 6.48975 70.8636 5.97106C70.9933 5.84139 79.5516 -2.32788 82.7934 0.654555C85.1274 2.85896 85.2572 10.2502 85.2572 11.6766C85.1275 12.4546 84.6088 13.103 83.8307 13.103Z" fill="#212223"/>
<path d="M27.0351 101.279C26.6461 101.279 26.3868 101.149 26.1274 100.89L19.7736 93.7579C19.2549 93.2392 19.3845 92.4612 19.9032 91.9425C20.4219 91.4238 21.1999 91.5535 21.7186 92.0722L28.0725 99.2041C28.5912 99.7228 28.4615 100.501 27.9428 101.019C27.6835 101.149 27.2945 101.279 27.0351 101.279Z" fill="#212223"/>
<path d="M33.7802 100.89C33.3912 100.89 33.1319 100.76 32.8725 100.501L19.7757 86.6263C19.257 86.1076 19.257 85.3296 19.7757 84.8109C20.2944 84.2922 21.0724 84.2922 21.5911 84.8109L34.6879 98.6857C35.2066 99.2044 35.2066 99.9824 34.6879 100.501C34.4286 100.76 34.0396 100.89 33.7802 100.89Z" fill="#212223"/>
<path d="M56.2108 72.1031C55.8217 72.1031 55.4327 71.9735 55.1734 71.7141L47.6525 63.1558C47.1338 62.6372 47.2635 61.8591 47.7821 61.3404C48.3008 60.8218 49.0788 60.9514 49.5975 61.4701L57.1185 70.0284C57.6371 70.5471 57.5075 71.3251 56.9888 71.8438C56.8591 71.9735 56.4701 72.1031 56.2108 72.1031Z" fill="#212223"/>
<path d="M56.2118 79.8832C55.8228 79.8832 55.4338 79.7535 55.1744 79.3645L42.4667 62.8963C42.0776 62.3776 42.0777 61.4699 42.726 61.0809C43.2447 60.6919 44.1524 60.6919 44.5414 61.3403L57.2491 77.8085C57.6382 78.3272 57.6382 79.2349 56.9898 79.6239C56.7305 79.8832 56.4711 79.8832 56.2118 79.8832Z" fill="#212223"/>
<path d="M79.0327 43.965C78.6437 43.965 78.2547 43.8353 77.9954 43.4463L72.4195 35.9254C72.0305 35.4067 72.1602 34.499 72.6789 34.11C73.1976 33.721 74.1052 33.8506 74.4942 34.3693L80.0702 41.8902C80.4592 42.4089 80.3295 43.3166 79.8108 43.7056C79.5515 43.965 79.2921 43.965 79.0327 43.965Z" fill="#212223"/>
<path d="M79.0333 52.6525C78.6443 52.6525 78.2553 52.3932 77.9959 52.1339L67.1036 36.314C66.7146 35.6656 66.8443 34.8876 67.4926 34.4986C68.141 34.1096 68.919 34.2393 69.308 34.8876L80.2004 50.5778C80.5894 51.2262 80.4597 52.0042 79.8114 52.3932C79.552 52.5229 79.2926 52.6525 79.0333 52.6525Z" fill="#212223"/>
<path d="M79.0332 60.1736C78.6442 60.1736 78.2552 60.044 77.9959 59.7846L72.4201 53.4307C71.9014 52.9121 72.031 52.134 72.5497 51.6154C73.0684 51.0967 73.8464 51.2263 74.3651 51.745L79.941 58.0989C80.4596 58.6176 80.33 59.3956 79.8113 59.9143C79.6816 60.044 79.2926 60.1736 79.0332 60.1736Z" fill="#212223"/>
<path d="M104.06 21.5321C103.671 21.5321 103.411 21.4024 103.152 21.1431L94.9828 12.5848C94.4641 12.0661 94.4641 11.2881 94.9828 10.7694C95.5014 10.2507 96.2794 10.2507 96.7981 10.7694L104.967 19.3277C105.486 19.8464 105.486 20.6244 104.967 21.1431C104.708 21.4024 104.449 21.5321 104.06 21.5321Z" fill="#212223"/>
<path d="M103.67 30.6086C103.281 30.6086 102.892 30.4789 102.633 30.0899L87.7208 12.4547C87.2021 11.936 87.3318 11.0283 87.8505 10.6393C88.3692 10.1206 89.2769 10.2503 89.6659 10.7689L104.578 28.4042C105.097 28.9229 104.967 29.8306 104.448 30.2196C104.319 30.4789 104.059 30.6086 103.67 30.6086Z" fill="#212223"/>
</svg>
