<svg width="34" height="52" viewBox="0 0 34 52" fill="none" xmlns="http://www.w3.org/2000/svg">
<path d="M20.2676 9.53239C20.2676 9.53239 25.4169 14.4243 29.708 14.3384C29.708 14.3384 34.9861 1.55092 32.1969 0.77852C30.7379 0.435231 20.2676 9.53239 20.2676 9.53239Z" fill="#3861FB"/>
<path d="M20.4833 31.1597C18.6381 31.1597 15.7631 29.9153 13.5746 28.4992C12.2443 27.641 10.013 25.9246 9.84131 24.2081C9.36929 19.1875 21.6848 6.52872 27.9927 2.10887C30.8678 0.0920518 31.8547 0.177874 32.3267 0.39243C33.0991 0.77863 33.4424 1.72268 33.3566 3.3533C32.9704 10.2191 23.8303 30.1298 21.2986 30.9881C21.084 31.1168 20.7837 31.1597 20.4833 31.1597ZM31.8118 1.16483C31.4685 1.16483 30.5674 1.37939 28.5077 2.83837C21.5561 7.68733 10.3562 19.8312 10.7424 24.1223C10.8283 25.1092 12.0727 26.4824 14.0895 27.7697C16.7071 29.4862 19.9254 30.6019 21.084 30.2157C22.7147 29.6578 32.1551 10.6911 32.5842 3.3533C32.67 2.15179 32.4555 1.4223 32.0264 1.20774C31.9405 1.20774 31.8976 1.16483 31.8118 1.16483Z" fill="black"/>
<path d="M29.2362 14.8105C23.6577 14.8105 20.0532 10.0045 19.9245 9.83283C19.7957 9.66119 19.8386 9.36081 20.0103 9.23208C20.1819 9.10334 20.4823 9.14625 20.611 9.3179C20.6539 9.36081 24.3014 14.2098 29.6653 13.9523C29.8798 13.9523 30.0944 14.1239 30.0944 14.3385C30.0944 14.596 29.9228 14.7676 29.7082 14.7676C29.5366 14.8105 29.4078 14.8105 29.2362 14.8105Z" fill="black"/>
<path d="M26.8333 36.2232C25.7177 36.2232 16.2343 31.4601 16.1914 31.3742C15.9768 31.2455 15.9339 30.988 16.0626 30.7735C16.1914 30.5589 16.4488 30.516 16.6634 30.6447C17.35 31.0739 25.7606 35.1075 26.7904 35.3221C27.1766 35.1075 28.5069 33.3052 28.9789 27.1689C29.408 21.2043 27.6916 20.1744 27.6487 20.1744C27.4341 20.0886 27.3483 19.8311 27.4341 19.6166C27.5199 19.402 27.7774 19.3162 27.9919 19.402C28.2494 19.4879 30.3091 20.6035 29.8371 27.2548C29.3222 33.9918 27.7774 36.0515 26.9192 36.1803C26.8762 36.2232 26.8333 36.2232 26.8333 36.2232Z" fill="black"/>
<path d="M11.644 29.443C11.6011 29.443 11.5581 29.443 11.4723 29.4001C11.3865 29.3572 3.06174 24.5941 2.76137 23.8646V23.8217C2.37516 22.9634 2.5039 21.9765 7.35286 17.7283C12.8884 12.9222 15.0339 14.5099 15.2485 14.6816C15.4201 14.8532 15.4631 15.1107 15.2914 15.2823C15.1198 15.454 14.8623 15.4969 14.6907 15.3253C14.6477 15.2823 12.8026 14.0808 7.9107 18.3719C3.10465 22.5343 3.40503 23.2209 3.53377 23.4784C4.17743 24.1649 11.3865 28.4131 11.8156 28.6277C12.0302 28.7135 12.116 28.971 12.0302 29.1855C11.9443 29.3572 11.7727 29.443 11.644 29.443Z" fill="black"/>
<path d="M15.2476 32.7906C14.561 32.7906 11.1281 31.2028 11.0852 30.2159C11.0423 29.5293 12.158 27.9845 12.6729 27.3408C12.8016 27.1692 13.102 27.1263 13.2737 27.255C13.4453 27.3838 13.4882 27.6841 13.3595 27.8558C12.63 28.7998 12.0292 29.8297 11.9863 30.1301C12.2867 30.6021 14.6897 31.8894 15.2476 31.9323C15.505 31.7607 16.1058 30.6879 16.5349 29.6151C16.6207 29.4006 16.8782 29.2718 17.0927 29.3577C17.3073 29.4435 17.436 29.701 17.3502 29.9155C16.7924 31.2029 16.0629 32.7477 15.2476 32.7906C15.2905 32.7906 15.2905 32.7906 15.2476 32.7906Z" fill="black"/>
<path d="M20.5699 23.5214C17.8236 23.5214 15.5064 21.5475 15.3777 19.0158C15.3348 17.7284 15.8068 16.5269 16.7508 15.5829C17.6949 14.6388 18.9822 14.081 20.3554 14.0381C23.2304 13.9093 25.6764 15.9262 25.8051 18.5437C25.9338 21.1613 23.7024 23.3927 20.8274 23.5643C20.7416 23.5214 20.6558 23.5214 20.5699 23.5214ZM20.6558 14.8534C20.5699 14.8534 20.4841 14.8534 20.3983 14.8534C19.2397 14.8963 18.124 15.3683 17.3516 16.1836C16.5792 16.956 16.193 17.943 16.2359 18.9728C16.3217 21.1184 18.3815 22.749 20.7845 22.6632C23.1875 22.5345 25.0756 20.6893 24.9469 18.5437C24.904 16.4411 22.973 14.8534 20.6558 14.8534Z" fill="black"/>
<path d="M20.6971 22.32C19.7102 22.32 18.809 22.0196 18.0796 21.4189C17.3072 20.7752 16.8351 19.8741 16.7922 18.93C16.7064 16.9561 18.3799 15.2397 20.5684 15.1109C22.7569 15.0251 24.602 16.527 24.6879 18.5438C24.7737 20.5177 23.1002 22.2342 20.9117 22.3629C20.8259 22.2771 20.783 22.32 20.6971 22.32ZM20.783 15.9262C20.74 15.9262 20.6542 15.9262 20.6113 15.9262C18.8949 16.0121 17.5646 17.2994 17.6504 18.8442C17.6934 19.5737 18.0366 20.2603 18.6374 20.7323C19.2382 21.2472 20.0535 21.5047 20.8688 21.4618C22.5852 21.3759 23.9155 20.0886 23.8296 18.5438C23.7867 17.0848 22.4136 15.9262 20.783 15.9262Z" fill="black"/>
<path d="M14.0465 41.072C14.0036 41.072 13.9607 41.072 13.9178 41.072C13.317 40.9004 13.317 40.0422 13.4458 37.3817C13.4458 37.1242 13.4887 36.9096 13.4887 36.6522C13.36 36.8667 13.2741 37.0384 13.1454 37.21C11.9868 39.2698 11.6435 39.8276 11.1715 39.8276C10.9998 39.8276 10.8282 39.7847 10.7424 39.6559C10.4849 39.3556 10.5707 38.8406 10.7853 37.8537C10.8282 37.5533 10.9569 37.1242 10.9998 36.8238C10.914 36.9526 10.8282 37.0813 10.7853 37.1671C10.5278 37.5533 10.3133 37.8966 10.0129 37.9824C9.84125 38.0253 9.62669 37.9824 9.49796 37.8537C9.24049 37.5533 9.36923 37.21 9.79834 36.1802C9.88416 35.9656 9.96998 35.7081 10.0987 35.4936C9.88416 35.6223 9.62669 35.794 9.45505 35.9227C7.99607 36.8667 7.39531 37.21 6.9662 36.9526C6.88038 36.9096 6.66583 36.738 6.70874 36.3518C6.83747 35.3219 10.3133 31.5887 11.386 30.473C11.5577 30.3013 11.8152 30.3013 11.9868 30.473C12.1584 30.6446 12.1584 30.9021 11.9868 31.0737C10.3133 32.8331 8.511 34.8928 7.82443 35.9227C8.21063 35.7081 8.63974 35.4078 8.98302 35.1932C10.1416 34.4637 10.5707 34.1633 10.914 34.4208C11.2573 34.6353 11.1715 35.0645 10.9569 35.751C11.1286 35.6652 11.3002 35.6652 11.5148 35.751C12.1584 35.9656 11.9439 36.8667 11.6864 38.0253C11.6864 38.1112 11.6435 38.197 11.6435 38.2399C11.9439 37.7679 12.2443 37.21 12.5017 36.7809C13.4029 35.1932 13.5745 34.8928 14.0036 34.9357C14.5186 35.0215 14.5186 35.4077 14.3898 37.4246C14.3898 37.5104 14.3898 37.5962 14.3898 37.7249C14.6044 36.2231 14.776 34.2491 14.9477 32.3611C14.9477 32.1036 15.1622 31.9319 15.4197 31.9749C15.6772 31.9749 15.8488 32.1894 15.8059 32.4469C15.1622 40.5142 14.6473 40.8575 14.4756 40.9862C14.2611 41.0291 14.1324 41.072 14.0465 41.072Z" fill="black"/>
<path d="M22.3703 28.6278C22.3274 28.6278 22.3274 28.6278 22.2845 28.6278C14.1314 27.2976 10.6556 21.7621 10.5268 21.5475C10.3981 21.3329 10.4839 21.0755 10.6556 20.9467C10.8701 20.818 11.1276 20.9038 11.2563 21.0755C11.2992 21.1184 14.6892 26.4823 22.4132 27.7696C22.6278 27.8125 22.7994 28.0271 22.7565 28.2416C22.7994 28.4562 22.5849 28.6278 22.3703 28.6278Z" fill="black"/>
<path d="M28.2072 14.8535C28.1643 14.8535 28.1643 14.8535 28.1214 14.8535C27.9927 14.8106 27.9497 14.6818 27.9927 14.596C28.0356 14.4673 32.0692 3.43913 31.9405 0.864458C31.9405 0.735725 32.0263 0.649902 32.155 0.649902C32.2838 0.649902 32.3696 0.735725 32.3696 0.864458C32.4983 3.52495 28.5505 14.2956 28.3789 14.7677C28.3359 14.7677 28.293 14.8535 28.2072 14.8535Z" fill="black"/>
<path d="M25.6325 35.4938C25.5896 35.4938 25.5467 35.4938 25.5038 35.4509C25.4179 35.3651 25.375 35.2363 25.4608 35.1505C25.4608 35.1505 26.7911 33.0908 27.778 28.5851C28.7221 24.1224 27.0056 21.8052 27.0056 21.8052C26.9198 21.7193 26.9627 21.5906 27.0486 21.5048C27.1344 21.419 27.2631 21.4619 27.3489 21.5477C27.4348 21.6335 29.1941 23.9936 28.2072 28.6709C27.2202 33.3053 25.89 35.3222 25.847 35.408C25.8041 35.4509 25.7183 35.4938 25.6325 35.4938Z" fill="black"/>
<path d="M4.30631 24.5945C4.2634 24.5945 4.22049 24.5945 4.17758 24.5516C4.09176 24.4658 4.04885 24.3371 4.13467 24.2513C4.99289 22.9639 10.3568 16.1411 13.8755 16.5702C14.0042 16.5702 14.0901 16.6989 14.0471 16.8276C14.0471 16.9564 13.9184 17.0422 13.7897 16.9993C10.4855 16.6131 5.16454 23.436 4.43505 24.5087C4.43505 24.5516 4.34922 24.5945 4.30631 24.5945Z" fill="black"/>
<path d="M11.0427 26.0105C10.9139 26.0105 10.8281 25.9247 10.8281 25.7959C10.8281 23.6504 11.7722 22.6634 11.8151 22.6205C11.9009 22.5347 12.0296 22.5347 12.1155 22.6205C12.2013 22.7063 12.2013 22.8351 12.1155 22.9209C12.1155 22.9209 11.2572 23.8649 11.2572 25.7959C11.2572 25.8818 11.1285 26.0105 11.0427 26.0105Z" fill="black"/>
<path d="M12.2451 31.2026C12.2022 31.2026 12.1592 31.2026 12.1163 31.1597C12.0305 31.1168 11.9876 30.9451 12.0305 30.8593L13.704 28.1559C13.747 28.0701 13.9186 28.0271 14.0044 28.0701C14.0902 28.113 14.1332 28.2846 14.0902 28.3704L12.4167 31.0738C12.3738 31.1597 12.3309 31.2026 12.2451 31.2026Z" fill="black"/>
<path d="M1.00138 42.7028C0.872642 42.7028 0.786821 42.6599 0.700999 42.5741C0.529354 42.4024 0.529354 42.1449 0.700999 41.9733L5.76451 37.1243C5.93616 36.9527 6.19362 36.9527 6.36527 37.1243C6.53691 37.296 6.53691 37.5534 6.36527 37.7251L1.30175 42.5311C1.21593 42.6599 1.0872 42.7028 1.00138 42.7028Z" fill="black"/>
<path d="M13.0158 48.9243C12.9729 48.9243 12.9729 48.9243 12.93 48.9243C12.7154 48.8814 12.5438 48.6669 12.5867 48.4523L13.5307 42.5306C13.5737 42.316 13.7882 42.1444 14.0028 42.1873C14.2173 42.2302 14.389 42.4447 14.3461 42.6593L13.402 48.581C13.402 48.7956 13.2304 48.9243 13.0158 48.9243Z" fill="black"/>
<path d="M9.66908 43.0461C9.62617 43.0461 9.54035 43.0461 9.49744 43.0032C9.28289 42.9174 9.19707 42.6599 9.28289 42.4453L10.0553 40.7289C10.1411 40.5143 10.3986 40.4285 10.6131 40.5143C10.8277 40.6002 10.9135 40.8576 10.8277 41.0722L10.0553 42.7886C10.0124 42.9174 9.84073 43.0461 9.66908 43.0461Z" fill="black"/>
<path d="M6.15045 51.7143C6.10754 51.7143 6.02172 51.7143 5.97881 51.6713C5.76425 51.5855 5.63552 51.3281 5.76425 51.1135L8.55348 44.2477C8.6393 44.0332 8.89677 43.9044 9.11132 43.9903C9.32588 44.0761 9.45461 44.3336 9.32588 44.5481L6.53665 51.4139C6.49374 51.6284 6.3221 51.7143 6.15045 51.7143Z" fill="black"/>
<path d="M18.6792 8.80271C18.5934 8.80271 18.4646 8.7598 18.3788 8.67397C18.2072 8.50233 18.2072 8.24487 18.3359 8.07322L18.5505 7.85867C19.8378 6.39969 23.7427 1.93693 26.489 1.20744C26.7036 1.16453 26.961 1.29326 27.004 1.50782C27.0469 1.72237 26.9181 1.97984 26.7036 2.02275C25.03 2.45186 22.4983 4.64033 19.1941 8.41651L18.9796 8.63107C18.9367 8.7598 18.8079 8.80271 18.6792 8.80271Z" fill="black"/>
<path d="M17.7358 7.73002C17.6929 7.73002 17.6071 7.73002 17.5642 7.68711C17.3496 7.60129 17.2638 7.34382 17.3925 7.12927C17.7787 6.39978 20.0959 4.21131 20.8683 3.65347C21.04 3.52473 21.3403 3.56764 21.4691 3.73929C21.5978 3.91093 21.5549 4.21131 21.3833 4.34005C20.5679 4.89789 18.4653 7.00053 18.2078 7.51547C18.0362 7.6442 17.9075 7.73002 17.7358 7.73002Z" fill="black"/>
</svg>
