<svg width="26" height="22" viewBox="0 0 26 22" fill="none" xmlns="http://www.w3.org/2000/svg">
<path d="M10.2308 0.200195L6.39079 15.7906L5.46919 11.3362C6.95399 11.3362 8.18279 11.797 9.15559 12.7186C10.1284 13.6402 10.6148 14.869 10.6148 16.405C10.6148 17.941 10.1284 19.1954 9.15559 20.1682C8.18279 21.141 6.97959 21.6274 5.54599 21.6274C4.06119 21.6274 2.83239 21.141 1.85959 20.1682C0.886791 19.1442 0.400391 17.8898 0.400391 16.405C0.400391 15.893 0.425991 15.4066 0.47719 14.9458C0.579591 14.485 0.733191 13.9474 0.937991 13.333C1.14279 12.6674 1.42439 11.8738 1.78279 10.9522L5.39239 0.200195H10.2308ZM24.746 0.200195L20.906 15.7906L19.9844 11.3362C21.4692 11.3362 22.698 11.797 23.6708 12.7186C24.6436 13.6402 25.13 14.869 25.13 16.405C25.13 17.941 24.6436 19.1954 23.6708 20.1682C22.698 21.141 21.4948 21.6274 20.0612 21.6274C18.5764 21.6274 17.3476 21.141 16.3748 20.1682C15.402 19.1442 14.9156 17.8898 14.9156 16.405C14.9156 15.893 14.9412 15.4066 14.9924 14.9458C15.0948 14.485 15.2484 13.9474 15.4532 13.333C15.658 12.6674 15.9396 11.8738 16.298 10.9522L19.9076 0.200195H24.746Z" fill="#3861FB"/>
</svg>
