<svg width="21" height="21" viewBox="0 0 21 21" fill="none" xmlns="http://www.w3.org/2000/svg">
<path d="M0 1.43352C0 0.64226 0.662428 0 1.47901 0H18.533C19.3499 0 20.012 0.64226 20.012 1.43352V18.5787C20.012 19.3702 19.3499 20.012 18.533 20.012H1.47901C0.662507 20.012 0 19.3703 0 18.579V1.43328V1.43352Z" fill="#006699"/>
<path d="M6.08128 16.7471V7.7376H3.08667V16.7471H6.08159H6.08128ZM4.5846 6.50773C5.62866 6.50773 6.27866 5.8159 6.27866 4.95132C6.25912 4.06704 5.62866 3.39453 4.60445 3.39453C3.57954 3.39453 2.91016 4.06704 2.91016 4.95125C2.91016 5.81583 3.55992 6.50765 4.56498 6.50765H4.58436L4.5846 6.50773ZM7.73883 16.7471H10.7332V11.7163C10.7332 11.4474 10.7527 11.1778 10.8319 10.9857C11.0482 10.4475 11.541 9.89038 12.3684 9.89038C13.4517 9.89038 13.8853 10.7165 13.8853 11.9278V16.7471H16.8796V11.5813C16.8796 8.81411 15.4025 7.52638 13.4323 7.52638C11.8171 7.52638 11.1076 8.42919 10.7135 9.04409H10.7334V7.73792H7.73899C7.77807 8.58311 7.73875 16.7474 7.73875 16.7474L7.73883 16.7471Z" fill="white"/>
</svg>
