<svg width="21" height="21" viewBox="0 0 21 21" fill="none" xmlns="http://www.w3.org/2000/svg">
<path d="M7.57745 10.9121C7.57745 9.07123 9.07026 7.57851 10.9122 7.57851C12.7542 7.57851 14.2478 9.07123 14.2478 10.9121C14.2478 12.753 12.7542 14.2457 10.9122 14.2457C9.07026 14.2457 7.57745 12.753 7.57745 10.9121ZM5.77429 10.9121C5.77429 13.7481 8.07455 16.047 10.9122 16.047C13.75 16.047 16.0502 13.7481 16.0502 10.9121C16.0502 8.07611 13.75 5.77723 10.9122 5.77723C8.07455 5.77723 5.77429 8.07611 5.77429 10.9121ZM15.0529 5.57363C15.0528 5.81097 15.1231 6.043 15.255 6.24039C15.3868 6.43779 15.5743 6.59167 15.7937 6.68258C16.013 6.77349 16.2545 6.79735 16.4874 6.75115C16.7203 6.70494 16.9343 6.59073 17.1023 6.42298C17.2703 6.25522 17.3847 6.04145 17.4312 5.80869C17.4776 5.57593 17.4539 5.33464 17.3631 5.11533C17.2723 4.89603 17.1185 4.70855 16.9211 4.57661C16.7237 4.44468 16.4916 4.3742 16.2541 4.37411H16.2536C15.9353 4.37426 15.63 4.50067 15.4049 4.72558C15.1798 4.95048 15.0532 5.2555 15.0529 5.57363V5.57363ZM6.86983 19.0519C5.89428 19.0075 5.36404 18.8451 5.01167 18.7079C4.54451 18.5261 4.21119 18.3096 3.86074 17.9599C3.51029 17.6101 3.29336 17.2773 3.11229 16.8104C2.97493 16.4584 2.81243 15.9284 2.76809 14.9534C2.71958 13.8993 2.70989 13.5827 2.70989 10.9122C2.70989 8.24171 2.72038 7.92595 2.76809 6.87099C2.81251 5.89603 2.97621 5.36699 3.11229 5.01395C3.29416 4.54707 3.51077 4.21395 3.86074 3.86371C4.21071 3.51347 4.54371 3.29667 5.01167 3.11571C5.36388 2.97843 5.89428 2.81603 6.86983 2.77171C7.92454 2.72323 8.24137 2.71355 10.9122 2.71355C13.5831 2.71355 13.9003 2.72403 14.9559 2.77171C15.9314 2.81611 16.4608 2.97971 16.814 3.11571C17.2812 3.29667 17.6145 3.51395 17.965 3.86371C18.3154 4.21347 18.5315 4.54707 18.7134 5.01395C18.8508 5.36595 19.0133 5.89603 19.0576 6.87099C19.1061 7.92595 19.1158 8.24171 19.1158 10.9122C19.1158 13.5827 19.1061 13.8984 19.0576 14.9534C19.0132 15.9284 18.8499 16.4583 18.7134 16.8104C18.5315 17.2773 18.3149 17.6104 17.965 17.9599C17.615 18.3093 17.2812 18.5261 16.814 18.7079C16.4618 18.8451 15.9314 19.0076 14.9559 19.0519C13.9012 19.1004 13.5843 19.11 10.9122 19.11C8.24017 19.11 7.92422 19.1004 6.86983 19.0519V19.0519ZM6.78698 0.972669C5.72178 1.02115 4.9939 1.18995 4.35824 1.43715C3.69992 1.69243 3.14263 2.03491 2.58574 2.59059C2.02884 3.14627 1.68704 3.70411 1.4316 4.36203C1.18426 4.99771 1.01536 5.72475 0.966846 6.78931C0.917537 7.85555 0.90625 8.19643 0.90625 10.9121C0.90625 13.6278 0.917537 13.9687 0.966846 15.0349C1.01536 16.0995 1.18426 16.8265 1.4316 17.4622C1.68704 18.1197 2.02892 18.6782 2.58574 19.2336C3.14255 19.7891 3.69992 20.1311 4.35824 20.3871C4.9951 20.6343 5.72178 20.8031 6.78698 20.8515C7.85442 20.9 8.19494 20.9121 10.9122 20.9121C13.6296 20.9121 13.9706 20.9008 15.0375 20.8515C16.1028 20.8031 16.8302 20.6343 17.4663 20.3871C18.1242 20.1311 18.6819 19.7893 19.2388 19.2336C19.7957 18.6779 20.1367 18.1197 20.3929 17.4622C20.6402 16.8265 20.8099 16.0995 20.8577 15.0349C20.9062 13.9679 20.9174 13.6278 20.9174 10.9121C20.9174 8.19643 20.9062 7.85555 20.8577 6.78931C20.8091 5.72467 20.6402 4.99731 20.3929 4.36203C20.1367 3.70451 19.7948 3.14715 19.2388 2.59059C18.6827 2.03403 18.1242 1.69243 17.4671 1.43715C16.8302 1.18995 16.1027 1.02035 15.0383 0.972669C13.9714 0.924189 13.6304 0.912109 10.913 0.912109C8.19574 0.912109 7.85442 0.923389 6.78698 0.972669Z" fill="url(#paint0_radial_1204_871)"/>
<path d="M7.57745 10.9121C7.57745 9.07123 9.07026 7.57851 10.9122 7.57851C12.7542 7.57851 14.2478 9.07123 14.2478 10.9121C14.2478 12.753 12.7542 14.2457 10.9122 14.2457C9.07026 14.2457 7.57745 12.753 7.57745 10.9121ZM5.77429 10.9121C5.77429 13.7481 8.07455 16.047 10.9122 16.047C13.75 16.047 16.0502 13.7481 16.0502 10.9121C16.0502 8.07611 13.75 5.77723 10.9122 5.77723C8.07455 5.77723 5.77429 8.07611 5.77429 10.9121ZM15.0529 5.57363C15.0528 5.81097 15.1231 6.043 15.255 6.24039C15.3868 6.43779 15.5743 6.59167 15.7937 6.68258C16.013 6.77349 16.2545 6.79735 16.4874 6.75115C16.7203 6.70494 16.9343 6.59073 17.1023 6.42298C17.2703 6.25522 17.3847 6.04145 17.4312 5.80869C17.4776 5.57593 17.4539 5.33464 17.3631 5.11533C17.2723 4.89603 17.1185 4.70855 16.9211 4.57661C16.7237 4.44468 16.4916 4.3742 16.2541 4.37411H16.2536C15.9353 4.37426 15.63 4.50067 15.4049 4.72558C15.1798 4.95048 15.0532 5.2555 15.0529 5.57363V5.57363ZM6.86983 19.0519C5.89428 19.0075 5.36404 18.8451 5.01167 18.7079C4.54451 18.5261 4.21119 18.3096 3.86074 17.9599C3.51029 17.6101 3.29336 17.2773 3.11229 16.8104C2.97493 16.4584 2.81243 15.9284 2.76809 14.9534C2.71958 13.8993 2.70989 13.5827 2.70989 10.9122C2.70989 8.24171 2.72038 7.92595 2.76809 6.87099C2.81251 5.89603 2.97621 5.36699 3.11229 5.01395C3.29416 4.54707 3.51077 4.21395 3.86074 3.86371C4.21071 3.51347 4.54371 3.29667 5.01167 3.11571C5.36388 2.97843 5.89428 2.81603 6.86983 2.77171C7.92454 2.72323 8.24137 2.71355 10.9122 2.71355C13.5831 2.71355 13.9003 2.72403 14.9559 2.77171C15.9314 2.81611 16.4608 2.97971 16.814 3.11571C17.2812 3.29667 17.6145 3.51395 17.965 3.86371C18.3154 4.21347 18.5315 4.54707 18.7134 5.01395C18.8508 5.36595 19.0133 5.89603 19.0576 6.87099C19.1061 7.92595 19.1158 8.24171 19.1158 10.9122C19.1158 13.5827 19.1061 13.8984 19.0576 14.9534C19.0132 15.9284 18.8499 16.4583 18.7134 16.8104C18.5315 17.2773 18.3149 17.6104 17.965 17.9599C17.615 18.3093 17.2812 18.5261 16.814 18.7079C16.4618 18.8451 15.9314 19.0076 14.9559 19.0519C13.9012 19.1004 13.5843 19.11 10.9122 19.11C8.24017 19.11 7.92422 19.1004 6.86983 19.0519V19.0519ZM6.78698 0.972669C5.72178 1.02115 4.9939 1.18995 4.35824 1.43715C3.69992 1.69243 3.14263 2.03491 2.58574 2.59059C2.02884 3.14627 1.68704 3.70411 1.4316 4.36203C1.18426 4.99771 1.01536 5.72475 0.966846 6.78931C0.917537 7.85555 0.90625 8.19643 0.90625 10.9121C0.90625 13.6278 0.917537 13.9687 0.966846 15.0349C1.01536 16.0995 1.18426 16.8265 1.4316 17.4622C1.68704 18.1197 2.02892 18.6782 2.58574 19.2336C3.14255 19.7891 3.69992 20.1311 4.35824 20.3871C4.9951 20.6343 5.72178 20.8031 6.78698 20.8515C7.85442 20.9 8.19494 20.9121 10.9122 20.9121C13.6296 20.9121 13.9706 20.9008 15.0375 20.8515C16.1028 20.8031 16.8302 20.6343 17.4663 20.3871C18.1242 20.1311 18.6819 19.7893 19.2388 19.2336C19.7957 18.6779 20.1367 18.1197 20.3929 17.4622C20.6402 16.8265 20.8099 16.0995 20.8577 15.0349C20.9062 13.9679 20.9174 13.6278 20.9174 10.9121C20.9174 8.19643 20.9062 7.85555 20.8577 6.78931C20.8091 5.72467 20.6402 4.99731 20.3929 4.36203C20.1367 3.70451 19.7948 3.14715 19.2388 2.59059C18.6827 2.03403 18.1242 1.69243 17.4671 1.43715C16.8302 1.18995 16.1027 1.02035 15.0383 0.972669C13.9714 0.924189 13.6304 0.912109 10.913 0.912109C8.19574 0.912109 7.85442 0.923389 6.78698 0.972669Z" fill="url(#paint1_radial_1204_871)"/>
<defs>
<radialGradient id="paint0_radial_1204_871" cx="0" cy="0" r="1" gradientUnits="userSpaceOnUse" gradientTransform="translate(3.56496 21.0066) scale(26.124 26.1083)">
<stop offset="0.09" stop-color="#FA8F21"/>
<stop offset="0.78" stop-color="#D82D7E"/>
</radialGradient>
<radialGradient id="paint1_radial_1204_871" cx="0" cy="0" r="1" gradientUnits="userSpaceOnUse" gradientTransform="translate(13.0426 21.9026) scale(20.5893 20.577)">
<stop offset="0.64" stop-color="#8C3AAA" stop-opacity="0"/>
<stop offset="1" stop-color="#8C3AAA"/>
</radialGradient>
</defs>
</svg>
