<svg width="135" height="149" viewBox="0 0 135 149" fill="none" xmlns="http://www.w3.org/2000/svg">
<path d="M101.431 134.815C100.485 134.815 99.5394 134.105 99.303 133.159C97.175 126.776 95.2836 122.993 88.8997 121.574C70.4575 117.555 44.6857 92.0192 41.3756 68.3754C39.957 58.2085 41.8485 44.0223 59.5813 34.0918C74.477 25.8165 87.4811 25.1072 98.3573 32.4368C117.272 44.7316 124.838 78.3058 122.237 103.605C121.055 115.19 126.257 118.973 126.493 119.21C127.439 119.919 127.912 121.338 126.966 122.52C126.257 123.466 124.838 123.938 123.656 123.229C123.42 122.993 115.854 117.791 117.272 103.132C119.637 79.0151 112.071 47.3324 95.52 36.4562C86.2989 30.3088 74.7134 31.0182 61.4729 38.3477C49.1781 45.2045 43.74 55.1348 45.6315 67.6661C48.7052 89.4184 72.8219 113.299 89.609 117.082C98.8301 119.21 101.194 125.83 103.322 131.741C103.795 132.923 103.086 134.342 101.904 134.815C101.904 134.815 101.667 134.815 101.431 134.815Z" fill="#212223"/>
<path d="M108.759 133.869C108.049 133.869 107.103 133.397 106.631 132.687C96.4637 115.9 84.4054 98.1673 76.3665 88.7098C74.0021 89.4191 71.4013 89.8919 69.0369 89.6555C64.781 89.4191 61.7073 87.5275 61.2344 84.6903C60.998 82.7988 61.7073 80.198 66.9089 77.8336C69.0369 76.8878 71.6377 77.3607 77.3122 83.0352C78.9673 82.0895 80.6224 80.4344 81.8046 78.07C80.1495 77.3607 79.2037 76.1785 78.7309 74.7599C78.0215 72.6319 78.9673 70.2676 81.0952 68.8489C82.7503 67.6667 84.8782 67.4303 86.2969 68.6125C88.1884 70.0311 88.1884 72.3955 87.9519 74.5235C88.4248 74.5235 88.8977 74.5235 89.607 74.5235C92.4443 74.5235 94.8086 74.0506 96.7001 73.3413C95.2815 66.4846 94.5722 61.0465 95.518 59.3914C95.9908 58.2092 96.9366 57.7363 98.1188 57.7363C102.375 57.7363 105.921 62.2286 105.921 67.6667C105.921 70.7404 104.739 73.5777 102.138 75.7057C106.158 91.547 114.197 115.427 121.763 124.176C122.708 125.121 122.472 126.776 121.526 127.486C120.58 128.431 119.162 128.195 118.216 127.249C110.886 118.501 102.138 95.33 97.8823 78.3065C95.518 79.2522 92.9171 79.4886 89.607 79.4886C88.6612 79.4886 87.4791 79.4887 86.7697 79.2522C85.3511 82.5624 83.4596 84.9267 80.8588 86.5818C84.1689 90.3648 88.1884 95.8029 93.1536 103.132C102.375 116.373 110.65 130.086 110.886 130.323C111.596 131.505 111.123 132.924 110.177 133.633C109.704 133.633 109.231 133.869 108.759 133.869ZM66.1996 83.981C66.9089 84.4539 69.0369 85.3996 72.347 84.9267C72.5835 84.9267 72.5835 84.9267 72.8199 84.9267C71.1648 83.2717 69.7462 82.3259 69.0369 82.3259C67.1454 83.0352 66.4361 83.7446 66.1996 83.981ZM99.7739 63.6473C100.01 65.0659 100.247 67.1939 100.72 69.5582C100.956 68.8489 100.956 68.1396 100.956 67.4303C101.192 66.0117 100.483 64.593 99.7739 63.6473Z" fill="#3861FB"/>
<path d="M105.685 141.908C100.484 141.908 98.3557 136.233 97.8828 132.923C97.8828 132.214 98.1193 131.504 98.5921 131.032C99.065 130.559 99.7743 130.322 100.484 130.322C100.72 130.322 116.089 130.795 125.546 118.737C126.019 118.264 126.492 118.027 127.201 117.791C127.91 117.791 128.383 118.027 128.856 118.264C130.984 120.155 134.294 124.648 131.93 128.904C129.329 134.105 109.705 141.435 106.158 141.671C105.922 141.908 105.685 141.908 105.685 141.908ZM103.084 135.051C103.557 136.233 104.503 137.415 105.685 137.179C108.995 136.943 126.019 129.849 127.438 127.012C127.91 126.066 127.438 124.884 126.965 123.938C118.926 132.687 108.286 134.578 103.084 135.051Z" fill="#212223"/>
<path d="M110.888 147.583C105.923 147.583 103.086 143.563 102.14 141.199C101.667 140.017 102.14 138.598 103.322 138.125C104.505 137.652 105.923 138.125 106.396 139.307C106.396 139.544 108.051 143.09 111.361 142.854C116.563 142.144 128.621 136.706 129.803 134.815C130.276 134.106 129.094 131.505 127.676 129.85C126.73 128.904 126.966 127.485 127.912 126.54C128.858 125.594 130.276 125.83 131.222 126.776C131.695 127.485 136.66 133.16 133.586 137.416C130.986 141.435 116.799 146.873 111.598 147.583C111.598 147.583 111.361 147.583 110.888 147.583Z" fill="#212223"/>
<path d="M122.71 149.001C119.4 149.001 116.09 146.873 115.617 146.4C114.435 145.69 114.198 144.272 115.144 143.09C115.853 142.144 117.272 141.671 118.454 142.617C119.873 143.563 122.474 144.745 123.656 144.035C124.602 143.563 125.075 141.907 125.075 139.543C125.075 138.124 126.257 137.179 127.439 137.179C128.858 137.179 129.803 138.361 129.803 139.543C129.567 144.035 128.385 146.873 125.784 148.291C124.838 148.764 123.892 149.001 122.71 149.001Z" fill="#212223"/>
<path d="M88.427 113.772C88.1905 113.772 88.1906 113.772 87.9541 113.772C72.3492 107.388 58.3993 92.7286 52.0155 76.6508C43.9766 55.8442 61.2366 42.1308 61.473 42.1308C61.9459 41.6579 62.6552 41.8944 63.1281 42.3673C63.601 42.8401 63.3646 43.5494 62.8917 44.0223C62.1824 44.4952 46.8138 56.79 54.1434 75.9415C60.0544 91.5464 73.7678 105.496 88.6634 111.88C89.3728 112.117 89.6092 112.826 89.3728 113.535C89.1363 113.535 88.8999 113.772 88.427 113.772Z" fill="#212223"/>
<path d="M114.435 88.9451C113.726 88.9451 113.253 88.4722 113.253 87.7629C113.253 87.5264 112.544 60.0996 101.195 48.0412C90.3185 36.6922 80.1516 39.0566 76.3686 40.4752C75.6593 40.7116 75.1864 40.4752 74.95 39.7659C74.7136 39.0566 74.95 38.5837 75.6593 38.3473C79.9152 36.6922 91.2643 34.0914 103.086 46.3862C114.908 58.9174 115.854 86.3443 115.854 87.5264C115.617 88.4722 115.145 88.9451 114.435 88.9451Z" fill="#212223"/>
<path d="M27.8997 64.8289L2.36438 63.6467C0.945753 63.6467 0 62.4645 0 61.2824C0 59.8637 1.18219 58.918 2.36438 58.918L27.8997 60.1002C29.3184 60.1002 30.2641 61.2824 30.2641 62.4645C30.0277 63.8832 29.0819 64.8289 27.8997 64.8289Z" fill="#3861FB"/>
<path d="M44.2125 35.7465C43.5032 35.7465 43.0303 35.51 42.5574 35.0371L24.8245 18.0136C23.8788 17.0678 23.8788 15.6492 24.8245 14.7035C25.7703 13.7577 27.1889 13.7577 28.1347 14.7035L45.8675 31.727C46.8133 32.6728 46.8133 34.0914 45.8675 35.0371C45.6311 35.51 44.9218 35.7465 44.2125 35.7465Z" fill="#3861FB"/>
<path d="M53.6651 28.6539C52.4829 28.6539 51.3007 27.7082 51.3007 26.2895C51.0643 24.8709 48.2271 18.9599 45.6262 14.4676C44.9169 13.2854 45.3898 11.8668 46.572 11.1575C47.7542 10.4482 49.1728 10.921 49.8821 12.1032C52.2465 16.3591 56.0295 23.6887 56.0295 26.2895C56.0295 27.7082 55.0838 28.6539 53.6651 28.6539Z" fill="#3861FB"/>
<path d="M104.031 28.1814C103.794 28.1814 103.558 28.1814 103.321 28.1814C102.139 27.7086 101.43 26.5264 101.666 25.3442L108.76 1.70036C109.232 0.518172 110.415 -0.191136 111.597 0.0453023C112.779 0.518179 113.488 1.70036 113.252 2.88255L106.159 26.5264C105.922 27.4721 104.977 28.1814 104.031 28.1814Z" fill="#3861FB"/>
</svg>
