<svg width="107" height="32" viewBox="0 0 107 32" fill="none" xmlns="http://www.w3.org/2000/svg">
<g clip-path="url(#clip0_196_4125)">
<path d="M43.2126 27.9571V11.7895H39.315V32H55.84L52.606 27.9571H43.2126Z" fill="white"/>
<path d="M103.13 11.7895V25.2434L92.3474 11.7895H88.451V15.7796L90.6159 18.5039H88.451V32H92.3474V18.5171L103.13 32H107V11.7895H103.13Z" fill="white"/>
<path d="M17.4798 11.7895H3.34468L0.111871 15.8311H11.6625L0 27.9571V32H17.4798V27.9571H5.81728L17.4798 15.8311V11.7895Z" fill="white"/>
<path d="M73.9657 11.7895V23.9445L71.071 27.9571L68.1204 24.0461V11.7895H64.224V23.9445L61.3574 27.9571L58.4068 24.0368V11.7895H54.5091V25.966L59.3806 32H63.277L66.1729 28.3909L69.1222 32H73.0199L77.8354 25.966V11.7895H73.9657Z" fill="white"/>
<path d="M36.6643 11.7895H20.1303V32H36.6643V27.9571H24.0267V23.9445H35.6905V19.903H26.1904L24.0267 21.8031V15.8311H36.6643V11.7895Z" fill="white"/>
<path d="M79.851 18.5039H81.3701V32H85.2665V11.7895L79.851 18.5039Z" fill="white"/>
<path d="M60.9649 7.57895L64.6514 -0.673683H66.1494L69.8476 7.57895H68.256L65.0844 0.139791H65.693L62.5331 7.57895H60.9649ZM62.6619 5.66905L63.0715 4.46653H67.4953L67.9049 5.66905H62.6619Z" fill="white"/>
<path d="M73.524 9.94863C72.9467 9.94863 72.381 9.87004 71.8271 9.71284C71.2809 9.56351 70.8323 9.34344 70.4812 9.05263L71.1366 7.94442C71.4097 8.17235 71.753 8.35312 72.1665 8.48674C72.5878 8.62821 73.013 8.69895 73.4421 8.69895C74.1287 8.69895 74.6319 8.53783 74.9518 8.21558C75.2717 7.90119 75.4316 7.42569 75.4316 6.78905V5.66905L75.5487 4.24253L75.5018 2.816V1.28337H76.8945V6.624C76.8945 7.76365 76.6058 8.6007 76.0285 9.13516C75.4511 9.67748 74.6163 9.94863 73.524 9.94863ZM73.3368 7.296C72.7438 7.296 72.2055 7.17025 71.7217 6.91874C71.2458 6.65937 70.8674 6.30176 70.5865 5.8459C70.3135 5.39004 70.1769 4.85558 70.1769 4.24253C70.1769 3.63733 70.3135 3.10681 70.5865 2.65095C70.8674 2.19509 71.2458 1.8414 71.7217 1.5899C72.2055 1.33839 72.7438 1.21263 73.3368 1.21263C73.8673 1.21263 74.3432 1.31874 74.7646 1.53095C75.1859 1.74316 75.5214 2.07326 75.771 2.52126C76.0285 2.96926 76.1572 3.54302 76.1572 4.24253C76.1572 4.94204 76.0285 5.51972 75.771 5.97558C75.5214 6.42358 75.1859 6.75762 74.7646 6.97769C74.3432 7.1899 73.8673 7.296 73.3368 7.296ZM73.5591 6.04632C73.9258 6.04632 74.2535 5.97165 74.5422 5.82232C74.8309 5.66512 75.0532 5.45291 75.2093 5.18569C75.3731 4.9106 75.455 4.59621 75.455 4.24253C75.455 3.88884 75.3731 3.57839 75.2093 3.31116C75.0532 3.03607 74.8309 2.82779 74.5422 2.68632C74.2535 2.53698 73.9258 2.46232 73.5591 2.46232C73.1924 2.46232 72.8608 2.53698 72.5644 2.68632C72.2757 2.82779 72.0494 3.03607 71.8856 3.31116C71.7295 3.57839 71.6515 3.88884 71.6515 4.24253C71.6515 4.59621 71.7295 4.9106 71.8856 5.18569C72.0494 5.45291 72.2757 5.66512 72.5644 5.82232C72.8608 5.97165 73.1924 6.04632 73.5591 6.04632Z" fill="white"/>
<path d="M81.7552 7.66148C81.0609 7.66148 80.4523 7.52393 79.9296 7.24884C79.4146 6.9659 79.0128 6.58077 78.7241 6.09347C78.4433 5.60618 78.3028 5.05207 78.3028 4.43116C78.3028 3.80239 78.4394 3.24828 78.7124 2.76884C78.9933 2.28155 79.3756 1.90035 79.8593 1.62526C80.3509 1.35018 80.9087 1.21263 81.5329 1.21263C82.1414 1.21263 82.6837 1.34625 83.1596 1.61347C83.6356 1.8807 84.0101 2.25797 84.2831 2.74526C84.5562 3.23256 84.6927 3.80632 84.6927 4.46653C84.6927 4.52941 84.6888 4.60014 84.681 4.67874C84.681 4.75733 84.6771 4.832 84.6693 4.90274H79.4614V3.92421H83.8969L83.3235 4.23074C83.3313 3.86919 83.2572 3.55088 83.1011 3.27579C82.9451 3.0007 82.7305 2.78456 82.4574 2.62737C82.1922 2.47018 81.884 2.39158 81.5329 2.39158C81.174 2.39158 80.858 2.47018 80.5849 2.62737C80.3197 2.78456 80.109 3.00463 79.953 3.28758C79.8047 3.56267 79.7306 3.88884 79.7306 4.26611V4.5019C79.7306 4.87916 79.8164 5.21319 79.9881 5.504C80.1597 5.79481 80.4016 6.01881 80.7137 6.176C81.0258 6.33319 81.3847 6.41179 81.7904 6.41179C82.1415 6.41179 82.4574 6.35677 82.7383 6.24674C83.0192 6.1367 83.2689 5.96379 83.4873 5.728L84.2714 6.63579C83.9905 6.9659 83.6356 7.22134 83.2064 7.40211C82.7851 7.57502 82.3014 7.66148 81.7552 7.66148Z" fill="white"/>
<path d="M89.644 1.21263C90.1433 1.21263 90.588 1.31088 90.9781 1.50737C91.376 1.70386 91.6881 2.00646 91.9144 2.41516C92.1406 2.816 92.2538 3.33474 92.2538 3.97137V7.57895H90.7909V4.16C90.7909 3.60197 90.6582 3.18541 90.393 2.91032C90.1355 2.63523 89.7727 2.49769 89.3046 2.49769C88.9613 2.49769 88.657 2.56842 88.3917 2.7099C88.1265 2.85137 87.9197 3.06358 87.7715 3.34653C87.631 3.62162 87.5608 3.97137 87.5608 4.39579V7.57895H86.0979V1.28337H87.4906V2.98105L87.2448 2.46232C87.4633 2.06148 87.7793 1.75495 88.1928 1.54274C88.6141 1.32267 89.0978 1.21263 89.644 1.21263Z" fill="white"/>
<path d="M96.9882 7.66148C96.3329 7.66148 95.7477 7.52393 95.2328 7.24884C94.7256 6.9659 94.3277 6.58077 94.0391 6.09347C93.7504 5.60618 93.606 5.05207 93.606 4.43116C93.606 3.80239 93.7504 3.24828 94.0391 2.76884C94.3277 2.28155 94.7256 1.90035 95.2328 1.62526C95.7477 1.35018 96.3329 1.21263 96.9882 1.21263C97.5968 1.21263 98.1312 1.33839 98.5916 1.5899C99.0597 1.83355 99.4147 2.19509 99.6566 2.67453L98.5331 3.33474C98.3458 3.03607 98.1156 2.816 97.8426 2.67453C97.5773 2.53305 97.2886 2.46232 96.9765 2.46232C96.6176 2.46232 96.2939 2.54091 96.0052 2.69811C95.7165 2.8553 95.4902 3.08323 95.3264 3.3819C95.1625 3.6727 95.0806 4.02246 95.0806 4.43116C95.0806 4.83986 95.1625 5.19355 95.3264 5.49221C95.4902 5.78302 95.7165 6.00702 96.0052 6.16421C96.2939 6.32141 96.6176 6.4 96.9765 6.4C97.2886 6.4 97.5773 6.32927 97.8426 6.18779C98.1156 6.04632 98.3458 5.82625 98.5331 5.52758L99.6566 6.18779C99.4147 6.65937 99.0597 7.02484 98.5916 7.28421C98.1312 7.53572 97.5968 7.66148 96.9882 7.66148Z" fill="white"/>
<path d="M101.356 9.94863C101.052 9.94863 100.747 9.89755 100.443 9.79537C100.139 9.6932 99.8854 9.55172 99.6825 9.37095L100.268 8.28632C100.416 8.41993 100.584 8.52604 100.771 8.60463C100.958 8.68323 101.149 8.72253 101.344 8.72253C101.61 8.72253 101.824 8.65572 101.988 8.52211C102.152 8.38849 102.304 8.16449 102.444 7.85011L102.807 7.02484L102.924 6.848L105.288 1.28337H106.693L103.767 8.0859C103.572 8.55748 103.353 8.93081 103.112 9.2059C102.877 9.48098 102.612 9.67355 102.316 9.78358C102.027 9.89362 101.707 9.94863 101.356 9.94863ZM102.643 7.80295L99.823 1.28337H101.344L103.638 6.71832L102.643 7.80295Z" fill="white"/>
</g>
<defs>
<clipPath id="clip0_196_4125">
<rect width="107" height="32" fill="white"/>
</clipPath>
</defs>
</svg>
