<svg width="150" height="139" viewBox="0 0 150 139" fill="none" xmlns="http://www.w3.org/2000/svg">
<path d="M69.4269 68.9545C68.7582 68.6123 68.0926 67.9894 67.707 67.3687C66.0564 64.5484 66.6197 59.0511 73.8605 52.597C78.3304 48.5346 80.7219 44.9608 80.8093 42.0422C80.8273 40.3581 80.2821 38.9501 79.0081 37.5925C78.2882 36.8008 76.8364 36.34 75.487 36.7782C73.6316 37.3809 72.5413 39.7862 72.0533 43.4876C71.8696 44.9458 70.3455 46.0002 68.3847 45.9844C65.9209 45.8524 63.4179 44.148 63.3456 40.4421C63.2161 36.8481 65.966 31.1999 70.481 28.1484C73.8665 25.93 77.6255 25.4549 81.3062 27.0564C85.5441 28.9432 88.1977 32.2768 88.9899 36.7745C89.9838 43.3509 86.4749 51.8562 80.5924 57.03C76.2943 60.757 76.2702 63.0024 76.3636 64.7435C76.3997 66.5965 76.2702 68.2235 73.3455 69.2667C71.7733 69.5909 70.4299 69.4678 69.4269 68.9545ZM79.264 34.6191C79.8213 34.9043 80.3213 35.3013 80.7098 35.6413C82.4839 37.3959 83.3574 39.5363 83.2761 41.8935C83.1797 45.6542 80.502 49.7871 75.5232 54.2945C69.8094 59.4136 68.6407 63.8955 69.8516 65.9263C70.4028 66.7728 71.2401 67.0603 72.3094 66.6198C73.716 66.0696 73.8305 65.846 73.6768 64.4974C73.5865 62.4756 73.5081 59.331 78.7671 54.8259C84.0833 50.2089 87.2459 42.6553 86.4116 36.866C85.8905 33.2127 83.7339 30.5567 80.2761 29.0693C77.3755 27.867 74.5714 28.1252 71.975 29.9008C68.3064 32.3977 65.957 37.2631 65.9269 40.0699C65.9058 42.0347 66.963 42.7168 67.8004 43.0043C68.7491 43.3488 69.4811 43.0178 69.707 42.8512C70.3304 36.9614 72.8184 34.848 74.731 34.1335C76.2491 33.6405 77.9267 33.9346 79.264 34.6191Z" fill="#212223"/>
<path d="M68.9346 81.7882C68.1543 81.3888 67.7686 80.768 67.6059 80.2613C66.7352 77.8395 69.6276 74.6617 70.3657 73.7692C70.5917 73.6025 70.8177 73.4358 71.1551 73.3262C72.7821 73.1708 74.2313 73.9125 75.1683 75.3801C76.1053 76.8478 76.1957 78.8702 75.34 80.2672C74.7706 81.105 73.5233 82.4428 70.8358 82.1965C69.9379 82.3016 69.3805 82.0164 68.9346 81.7882ZM71.7998 75.9147C70.5525 77.2524 69.6939 78.9303 69.8566 79.437C69.968 79.494 70.1337 79.72 70.9171 79.8386C71.7004 79.9572 72.5983 79.8521 73.1105 79.1262C73.3967 78.5669 73.463 77.6127 72.9659 76.9348C72.8574 76.597 72.4145 76.0881 71.7998 75.9147Z" fill="#212223"/>
<path d="M24.7422 135.265C26.4378 134.889 45.2775 126.599 45.2775 126.599C45.2775 126.599 100.29 121.324 115.361 110.02C130.433 98.7163 159.446 68.0075 142.867 34.8496C142.867 34.8496 153.418 72.3407 123.839 92.3108C94.2608 112.281 38.872 121.136 38.872 121.136L24.7422 135.265Z" fill="#3861FB"/>
<path d="M45.0917 128.295C44.7149 128.295 44.1497 128.107 43.9613 127.919L37.3674 122.455C36.6138 121.702 36.4254 120.571 37.1789 119.818C37.9325 119.064 39.0629 118.876 39.8165 119.629L46.4104 125.093C47.164 125.846 47.3524 126.977 46.5988 127.73C46.222 128.107 45.6569 128.295 45.0917 128.295Z" fill="#212223"/>
<path d="M55.453 127.541C55.0762 127.541 54.6994 127.352 54.3226 127.164L47.7287 121.889C46.9751 121.324 46.7867 120.005 47.5403 119.251C48.1055 118.498 49.4242 118.309 50.1778 119.063L56.7717 124.338C57.5253 124.903 57.7137 126.222 56.9601 126.975C56.5834 127.164 56.0182 127.541 55.453 127.541Z" fill="#212223"/>
<path d="M20.5995 138.469C20.2227 138.469 19.8459 138.28 19.4691 137.903C19.2807 137.715 18.1503 136.773 19.0923 135.077C20.7879 131.686 25.8746 114.542 25.8746 110.963C7.0349 96.2676 -1.63139 80.2538 0.252586 63.298C2.89015 38.8064 27.1934 18.8362 47.1635 9.22798C69.206 -1.32227 102.552 -4.71343 123.841 9.22798C137.971 18.4594 144.753 34.2848 144 55.1969C141.551 114.919 49.4243 122.078 39.6276 122.643C25.6862 135.831 22.2951 138.469 20.5995 138.469ZM28.7006 108.513C29.6426 109.267 30.5846 110.021 27.1934 122.643C26.4399 125.469 25.4978 128.672 24.5558 131.498C27.005 129.237 30.9614 125.658 37.1785 119.817L37.3669 119.629C37.7437 119.252 38.1205 119.064 38.4973 119.064C39.4393 119.064 137.594 113.412 140.043 55.1969C140.797 35.4152 134.58 21.097 121.58 12.6191C101.61 -0.380282 69.206 3.01088 48.6707 12.8075C28.1354 22.7926 6.2813 42.3859 4.02053 63.8632C2.32496 79.5002 10.6145 94.3836 28.7006 108.513Z" fill="#212223"/>
<path d="M20.7878 137.903C19.8458 137.903 19.0922 137.15 18.9039 136.208C18.7155 135.266 19.4691 134.324 20.5995 134.135C20.5995 134.135 29.2657 133.005 44.3375 124.715C44.5259 124.527 44.9027 124.527 45.2795 124.527C45.8447 124.527 102.364 123.397 127.986 98.3398C152.478 74.225 149.84 43.1394 134.957 25.9952C134.203 25.2417 134.391 24.1112 135.145 23.3577C135.899 22.6041 137.029 22.7925 137.783 23.5461C153.796 42.009 156.622 75.3554 130.624 100.977C105.001 126.223 51.8734 128.107 45.8447 128.295C30.3961 136.773 21.5414 137.903 21.1646 137.903C20.9762 137.903 20.7878 137.903 20.7878 137.903Z" fill="#212223"/>
<path d="M65.0613 126.223C64.6845 126.223 64.1193 126.035 63.7425 125.658L57.1486 119.817C56.395 119.064 56.2066 117.933 56.9602 117.18C57.7138 116.426 58.8442 116.238 59.5978 116.991L66.1917 122.832C66.9452 123.585 67.1337 124.716 66.3801 125.469C66.1917 126.035 65.6265 126.223 65.0613 126.223Z" fill="#212223"/>
<path d="M136.087 94.0069C135.521 94.0069 134.956 93.8185 134.579 93.2533L129.493 86.2826C128.927 85.529 129.116 84.2102 129.87 83.645C130.623 83.0798 131.942 83.2683 132.507 84.0218L137.594 90.9925C138.159 91.7461 137.971 93.0649 137.217 93.6301C136.84 94.0069 136.463 94.0069 136.087 94.0069Z" fill="#212223"/>
<path d="M140.608 84.9634C140.043 84.9634 139.666 84.775 139.289 84.3982L134.956 80.065C134.202 79.3115 134.202 78.1811 134.956 77.4275C135.709 76.6739 136.84 76.6739 137.593 77.4275L141.927 81.7606C142.68 82.5142 142.68 83.6446 141.927 84.3982C141.55 84.775 140.985 84.9634 140.608 84.9634Z" fill="#212223"/>
<path d="M41.7 111.904C41.5116 111.904 41.5116 111.904 41.5116 111.904C40.9464 111.904 40.5696 111.339 40.758 110.774C40.758 110.208 41.3232 109.832 41.8884 110.02C44.526 110.208 98.9728 103.426 119.885 81.1952C140.42 59.1527 126.479 27.3136 124.972 25.618C124.595 25.2412 124.595 24.676 124.972 24.2992C125.348 23.9224 125.914 23.9224 126.29 24.2992C127.421 25.2412 132.319 35.7914 132.884 48.7909C133.449 61.9787 129.493 73.6593 121.392 82.514C100.292 104.745 46.2215 111.904 41.7 111.904Z" fill="#212223"/>
<path d="M118.755 17.8947C118.567 17.8947 118.378 17.8947 118.19 17.7063C117.813 17.5179 88.2348 0.37378 54.1349 16.3876C53.7581 16.576 53.1929 16.3876 52.8161 16.0108C52.6277 15.634 52.8161 15.0688 53.1929 14.692C88.2348 -1.69858 118.567 15.8224 118.944 16.0108C119.32 16.1992 119.509 16.7643 119.32 17.3295C119.32 17.8947 119.132 17.8947 118.755 17.8947Z" fill="#212223"/>
<path d="M41.3228 107.195C40.7577 107.195 40.3809 106.818 40.3809 106.253C40.3809 105.687 40.7577 105.311 41.3228 105.311C41.6996 105.311 78.6255 101.731 98.4072 88.5433C98.784 88.1665 99.3492 88.3549 99.726 88.7317C100.103 89.1085 99.9144 89.6737 99.5376 90.0505C79.1907 103.615 41.6996 107.195 41.3228 107.195Z" fill="#212223"/>
</svg>
