<svg width="124" height="24" viewBox="0 0 124 24" fill="none" xmlns="http://www.w3.org/2000/svg">
<path fill-rule="evenodd" clip-rule="evenodd" d="M11.0656 0L10.7773 4.30194H8.66037L8.46674 1.62565H5.09984V8.02993H6.54341C6.65098 7.55217 6.73703 7.07442 6.92851 6.59559H8.46674V10.9927H7.02532L6.64022 9.55832H5.19665V16.3452H8.56355L8.85184 13.3814L11.1603 13.4883L11.3539 17.9816H0.290436V16.4532L1.82867 16.1667V1.8159L0 1.52946V0.00107026H11.0635L11.0656 0ZM50.1131 23.9925C50.1131 23.5148 50.2206 23.1321 50.2206 22.7495L51.3749 22.4631V7.17916C50.894 7.07228 50.5089 7.07228 50.0281 6.98677V5.74376L53.6854 5.266C53.793 5.74375 53.9737 6.22151 54.0705 6.60414C54.1781 6.60414 54.1781 6.49726 54.2642 6.49726C55.1301 5.44556 56.2843 5.15912 57.6311 5.25424C59.2661 5.44663 60.2288 6.49726 60.6139 7.93053C60.8076 8.5996 60.999 9.26867 60.999 9.93774C61.1066 11.3721 61.1066 12.8053 60.8915 14.1435C60.7839 14.6212 60.6032 15.1952 60.4106 15.6719C59.7373 17.1062 58.582 17.9655 57.0437 18.0617C56.1778 18.1686 55.4087 18.0617 54.6385 17.6791H54.4449V22.4705L55.6959 22.757C55.6959 23.1396 55.5883 23.5212 55.5883 24H50.1045L50.1131 23.9925ZM54.4427 16.0588C55.4044 16.4414 56.379 16.5365 57.3288 16.1657C57.5007 16.0903 57.6381 15.9539 57.7139 15.783C57.8215 15.3053 58.0022 14.8275 58.0022 14.3487C58.1958 12.9144 58.1958 11.3849 58.1097 9.95164C58.1074 9.4287 58.0097 8.91051 57.8215 8.42218C57.5332 7.37048 56.763 6.98784 55.7045 7.17916H55.5109C54.8375 7.28604 54.4524 7.75311 54.4524 8.42218V16.0577L54.4427 16.0588ZM91.0021 16.3474L92.2532 16.6338C92.2532 17.1116 92.2532 17.4942 92.1456 17.9719H87.9128V9.36807C87.9128 8.98544 87.8052 8.60388 87.7191 8.22124C87.6116 7.74349 87.2383 7.55217 86.7575 7.45705C86.2766 7.36193 85.8915 7.35017 85.5064 7.56393C85.1213 7.77769 84.8331 7.94656 84.8331 8.42432V16.3581L86.0841 16.6445C86.0841 17.0271 85.9765 17.5049 85.9765 17.9826H80.5895V16.6466L81.8405 16.3602V7.27856C81.3597 7.17168 80.9746 7.17168 80.4937 7.08617V5.73307L84.0435 5.25531L84.3318 6.40214C84.6201 6.20976 84.9094 5.92438 85.1977 5.73307C86.3519 4.96887 87.6987 4.87268 88.9497 5.35044C90.0082 5.73307 90.5848 6.59345 90.7784 7.74028C90.886 8.02672 90.886 8.40935 90.886 8.69579V15.8653C90.956 16.0147 90.9892 16.1785 90.9828 16.3431L91.0021 16.3474ZM16.5387 16.4542L17.7897 16.7407C17.7897 17.2184 17.6822 17.6011 17.6822 18.0788H12.1983C12.1983 17.6962 12.1983 17.2184 12.3059 16.7407L13.4601 16.4542C13.5677 16.1678 13.5677 7.85037 13.4601 7.37261C13.075 7.26573 12.5942 7.26573 12.1133 7.18023V5.82926L15.6631 5.35151L15.9514 6.49833L16.2397 6.21189C17.3939 5.25638 18.7406 4.96887 20.1842 5.35151C21.4352 5.63795 22.1205 6.49833 22.3969 7.74135C22.5045 8.02779 22.5045 8.41042 22.5045 8.69686V16.3442L23.7555 16.6306V17.9816H19.5227V9.66627C19.5227 9.37983 19.5227 8.9972 19.4151 8.71076C19.3075 7.94656 18.8375 7.56393 18.1641 7.46774C17.5864 7.36086 17.1056 7.46774 16.7205 7.94549C16.5269 8.13788 16.5269 8.32812 16.5269 8.61456V16.4532L16.5387 16.4542ZM110.446 6.97822C109.965 6.97822 109.58 6.87134 109.1 6.87134V5.72452L113.237 5.24676C113.43 5.72452 113.622 6.20227 113.622 6.77515V16.4297L114.873 16.7161C114.873 17.1939 114.765 17.5765 114.765 18.0542H111.215C111.108 17.7678 111.022 17.3852 110.927 17.0025C110.82 17.1094 110.733 17.1949 110.639 17.1949C109.195 18.5331 107.272 18.3418 106.021 17.7689C105.059 17.2911 104.577 16.5259 104.386 15.4752C104.278 15.0926 104.278 14.8061 104.278 14.4235V7.06266C103.797 6.95578 103.317 6.95578 102.932 6.87028V5.73307L106.972 5.25531C107.079 5.73307 107.26 6.1157 107.26 6.59345V13.8581C107.26 14.1446 107.26 14.5272 107.368 14.8136C107.475 15.674 108.041 16.248 108.906 16.248C109.194 16.248 109.579 16.1411 109.868 16.1411C110.156 16.0342 110.637 15.472 110.637 15.1856V7.25077C110.443 7.14389 110.443 7.05838 110.443 6.96433L110.446 6.97822ZM43.305 12.4259C43.305 13.4776 43.4987 14.3498 43.9784 15.1984C44.4593 15.8675 45.1326 16.2501 45.9986 16.3452C46.8645 16.3452 47.6336 16.1528 48.4038 15.8675C48.5114 15.8675 48.5974 15.7606 48.7889 15.7606C48.9825 16.1432 49.0772 16.5248 49.2697 16.9074C49.0761 17.0998 48.7889 17.1939 48.5964 17.3852C47.0581 18.2456 45.4231 18.532 43.7859 17.9591C42.3423 17.5765 41.4775 16.621 40.803 15.2828C40.1296 13.8485 39.9371 12.319 40.1296 10.7896C40.2372 9.83407 40.4179 8.86573 40.803 8.0171C41.4764 6.58277 42.5241 5.62726 44.0731 5.34082C45.6221 5.05438 46.9592 5.23394 48.1134 6.29633C48.7868 6.9654 49.1719 7.82472 49.4601 8.68617C49.7484 9.64168 49.8452 10.5031 49.8452 11.4587C49.8452 11.7451 49.6516 12.0326 49.5569 12.4142H43.304L43.305 12.4259ZM47.057 10.8013C47.057 10.4187 46.9495 10.1323 46.9495 9.84583C46.8419 9.08163 46.7559 8.41149 46.3718 7.74242C45.9867 6.97823 45.3134 6.78691 44.5432 7.07335C44.2549 7.18023 44.0623 7.35979 43.8698 7.6473C43.4847 8.699 43.2921 9.7507 43.1964 10.8003V11.0867L47.0441 10.8003L47.057 10.8013ZM102.186 12.4259L95.9331 12.5328C95.8255 13.0106 95.9331 13.3932 96.0407 13.7758C96.1393 14.4037 96.4048 14.9941 96.8098 15.4859C97.2906 16.0599 97.8683 16.3463 98.6384 16.3463C99.4086 16.3463 100.177 16.2394 100.947 15.9637C101.14 15.8568 101.235 15.8568 101.428 15.7713C101.621 16.1539 101.716 16.5355 101.909 16.9181C101.801 16.9181 101.801 17.025 101.715 17.025C100.368 17.9805 98.9246 18.268 97.2895 18.1718C95.3533 17.9794 94.0194 16.8337 93.345 15.0188C92.3833 12.7252 92.4791 10.4305 93.4526 8.13574C94.0302 6.70141 95.0876 5.65077 96.7226 5.36326C97.9737 5.07682 99.2236 5.17088 100.272 5.93721C101.042 6.51116 101.523 7.27535 101.907 8.04062C102.293 9.09232 102.485 10.3343 102.485 11.4822C102.485 11.7686 102.291 12.0561 102.197 12.4377L102.186 12.4259ZM99.7808 10.8013C99.7808 9.94095 99.6732 9.17675 99.3957 8.41149C99.2882 8.02886 99.1074 7.6473 98.8181 7.35979C98.3372 6.69072 96.7979 6.88203 96.6054 7.74242C96.4118 8.41149 96.2203 9.08056 96.1246 9.84583C96.017 10.2285 96.017 10.61 96.017 11.0888L99.769 10.8024L99.7808 10.8013ZM80.057 12.4259L73.804 12.5328C73.804 13.6796 73.9976 14.6362 74.67 15.4966C75.1508 16.0705 75.7284 16.357 76.3911 16.357C77.1602 16.357 78.0261 16.2501 78.6995 15.9743C78.8931 15.8675 78.9878 15.8675 79.1803 15.782C79.3739 16.1646 79.4686 16.5462 79.6612 16.9288C79.4675 17.0357 79.3729 17.1212 79.2761 17.2152C77.8983 18.0634 76.2516 18.3702 74.6581 18.0756C73.1199 17.7892 72.0603 16.8326 71.388 15.4945C70.7147 14.0601 70.5221 12.6269 70.6189 11.0974C70.7265 10.0457 70.9072 9.09018 71.2923 8.1336C71.7731 6.98677 72.5433 6.12639 73.6975 5.64863C75.0443 5.07469 76.3911 5.07468 77.7378 5.75551C78.6038 6.23327 79.1814 6.99853 79.5665 7.85892C80.0473 9.00575 80.2399 10.2488 80.2399 11.4929C80.3474 11.7793 80.1323 12.0668 80.0462 12.4484L80.057 12.4259ZM77.6518 10.8013C77.6518 10.4187 77.5442 10.0371 77.5442 9.65451C77.4366 8.98544 77.3506 8.31637 76.9665 7.73066C76.4857 6.96647 75.8123 6.67896 75.0303 7.06159C74.8367 7.16847 74.6452 7.25398 74.5495 7.53935C74.1644 8.30354 73.9718 9.16393 73.8761 10.0243C73.8761 10.3108 73.7685 10.5983 73.7685 10.9798C75.0196 10.9798 76.2695 10.8729 77.6163 10.7874L77.6518 10.8013ZM35.1158 5.35257L35.4041 6.4994C35.5977 6.39252 35.6924 6.30702 35.885 6.21296C36.7509 5.73521 37.7136 5.44877 38.6753 5.35257C39.1561 5.24569 39.5412 5.45945 39.8295 5.83033L39.4444 9.17569C38.771 9.17569 38.0976 9.06881 37.4243 9.06881C37.3167 8.49486 37.2306 7.92198 37.2306 7.25184C36.7498 7.25184 36.3647 7.44422 35.9796 7.72959V16.3335L37.2306 16.6199C37.2306 17.0025 37.2306 17.4803 37.1231 17.8629H31.7489V16.6199L32.9031 16.3335V7.26146C32.4223 7.15458 32.0372 7.15458 31.5564 7.06907V5.73307C32.7106 5.73307 33.8648 5.54068 35.1062 5.35044L35.1158 5.35257ZM115.448 17.9816C115.448 17.5038 115.448 17.1212 115.556 16.7385L116.71 16.4521V7.37048C116.325 7.2636 115.844 7.2636 115.363 7.17809V5.82926L119.021 5.35151L119.309 6.40321L120.847 5.73414C121.425 5.54175 121.906 5.4477 122.482 5.35151C122.963 5.24463 123.348 5.3515 123.636 5.82926L123.251 9.17462C122.578 9.17462 121.904 9.06774 121.231 9.06774C121.124 8.49379 121.037 7.82472 121.037 7.25077L119.786 7.72852V16.4286L121.037 16.715C121.037 17.0977 120.93 17.5754 120.93 17.958H115.446L115.448 17.9816ZM67.6231 7.26466L66.3721 7.74242V16.4425L67.6231 16.7289C67.6231 17.2067 67.5156 17.5893 67.5156 17.9719H62.1285V16.7289L63.2827 16.4425V7.36086C62.8019 7.25398 62.4168 7.25398 61.936 7.16847V5.82926L65.5933 5.35151L65.8816 6.40321L66.9401 5.82926C67.6134 5.54282 68.2868 5.3515 69.057 5.25531C69.6347 5.25531 70.0187 5.4477 70.308 5.82926L69.923 9.17462C69.2496 9.17462 68.5762 9.06774 67.9028 9.06774L67.6145 7.25077L67.6231 7.26466ZM28.1798 2.96273V5.54389H30.4043C30.2968 6.11784 30.2968 6.59559 30.2968 7.16847C29.6234 7.16847 28.95 7.27535 28.2766 7.36086V15.4859C28.3842 15.9637 28.6617 16.3463 29.2383 16.3463H30.4893C30.4893 16.8241 30.5969 17.2067 30.5969 17.6844C30.3086 17.8768 29.9235 17.9709 29.5384 18.0671C28.7693 18.2595 28.0002 18.2595 27.23 18.174C26.0758 17.9816 25.2937 17.2184 25.113 15.9754V7.37154C24.6322 7.26466 24.1513 7.17916 23.6694 7.17916C23.6694 6.7014 23.6694 6.12746 23.777 5.65077C24.3547 5.65077 24.8355 5.54389 25.4121 5.54389L26.0854 3.15404L28.2024 2.96166L28.1798 2.96273Z" fill="#828A97"/>
</svg>
