<svg width="21" height="21" viewBox="0 0 21 21" fill="none" xmlns="http://www.w3.org/2000/svg">
<path d="M10.006 20.012C15.5322 20.012 20.012 15.5322 20.012 10.006C20.012 4.47985 15.5322 0 10.006 0C4.47985 0 0 4.47985 0 10.006C0 15.5322 4.47985 20.012 10.006 20.012Z" fill="#34AADF"/>
<path d="M4.28863 9.78685C4.28863 9.78685 9.24509 7.6782 10.9641 6.9357C11.623 6.63872 13.8577 5.68831 13.8577 5.68831C13.8577 5.68831 14.8892 5.27254 14.8032 6.28231C14.7745 6.69812 14.5453 8.15337 14.3162 9.72745C13.9723 11.9549 13.5999 14.3903 13.5999 14.3903C13.5999 14.3903 13.5426 15.0734 13.0555 15.1922C12.5685 15.311 11.7663 14.7764 11.623 14.6576C11.5084 14.5685 9.47428 13.232 8.72938 12.5786C8.52882 12.4004 8.29964 12.044 8.75801 11.6282C9.78943 10.6481 11.0214 9.43047 11.7663 8.65829C12.1101 8.30188 12.4539 7.4703 11.0214 8.48006C8.98724 9.93536 6.98173 11.3015 6.98173 11.3015C6.98173 11.3015 6.52332 11.5985 5.66383 11.3312C4.8043 11.064 3.80155 10.7075 3.80155 10.7075C3.80155 10.7075 3.11398 10.2621 4.28863 9.78685Z" fill="white"/>
</svg>
